<mxfile host="app.diagrams.net" modified="2024-01-16T21:36:40.512Z" agent="Mozilla/5.0 (Windows NT 10.0; Win64; x64) AppleWebKit/537.36 (KHTML, like Gecko) Chrome/120.0.0.0 Safari/537.36" etag="ZuhstbEQxDpZxBfPPqZI" version="22.1.18" type="device">
  <diagram id="prtHgNgQTEPvFCAcTncT" name="Page-1">
    <mxGraphModel dx="1588" dy="948" grid="1" gridSize="10" guides="1" tooltips="1" connect="1" arrows="1" fold="1" page="1" pageScale="1" pageWidth="827" pageHeight="1169" math="0" shadow="0">
      <root>
        <mxCell id="0" />
        <mxCell id="1" parent="0" />
        <mxCell id="FFVz2CKMZXDEGPBVcJut-1" value="Create franchise" style="swimlane;html=1;childLayout=stackLayout;resizeParent=1;resizeParentMax=0;horizontal=1;startSize=20;horizontalStack=0;whiteSpace=wrap;fontSize=10;" parent="1" vertex="1">
          <mxGeometry x="150" y="280" width="2830" height="590" as="geometry" />
        </mxCell>
        <mxCell id="FFVz2CKMZXDEGPBVcJut-6" value="graphql client" style="swimlane;html=1;startSize=20;horizontal=0;" parent="FFVz2CKMZXDEGPBVcJut-1" vertex="1">
          <mxGeometry y="20" width="2830" height="120" as="geometry" />
        </mxCell>
        <mxCell id="FFVz2CKMZXDEGPBVcJut-7" value="&lt;font style=&quot;font-size: 8px;&quot;&gt;Enviar solicitud de creacion de franquicia unicamente con la url&lt;/font&gt;" style="points=[[0.25,0,0],[0.5,0,0],[0.75,0,0],[1,0.25,0],[1,0.5,0],[1,0.75,0],[0.75,1,0],[0.5,1,0],[0.25,1,0],[0,0.75,0],[0,0.5,0],[0,0.25,0]];shape=mxgraph.bpmn.task;whiteSpace=wrap;rectStyle=rounded;size=10;html=1;container=1;expand=0;collapsible=0;taskMarker=abstract;" parent="FFVz2CKMZXDEGPBVcJut-6" vertex="1">
          <mxGeometry x="150" y="25" width="90" height="60" as="geometry" />
        </mxCell>
        <mxCell id="FFVz2CKMZXDEGPBVcJut-89" style="edgeStyle=orthogonalEdgeStyle;rounded=0;orthogonalLoop=1;jettySize=auto;html=1;" parent="FFVz2CKMZXDEGPBVcJut-6" source="FFVz2CKMZXDEGPBVcJut-26" target="FFVz2CKMZXDEGPBVcJut-88" edge="1">
          <mxGeometry relative="1" as="geometry" />
        </mxCell>
        <mxCell id="FFVz2CKMZXDEGPBVcJut-26" value="Recibir datos de resultado" style="points=[[0.25,0,0],[0.5,0,0],[0.75,0,0],[1,0.25,0],[1,0.5,0],[1,0.75,0],[0.75,1,0],[0.5,1,0],[0.25,1,0],[0,0.75,0],[0,0.5,0],[0,0.25,0]];shape=mxgraph.bpmn.task;whiteSpace=wrap;rectStyle=rounded;size=10;html=1;container=1;expand=0;collapsible=0;taskMarker=abstract;fontSize=8;" parent="FFVz2CKMZXDEGPBVcJut-6" vertex="1">
          <mxGeometry x="500" y="35" width="90" height="50" as="geometry" />
        </mxCell>
        <mxCell id="FFVz2CKMZXDEGPBVcJut-88" value="" style="points=[[0.145,0.145,0],[0.5,0,0],[0.855,0.145,0],[1,0.5,0],[0.855,0.855,0],[0.5,1,0],[0.145,0.855,0],[0,0.5,0]];shape=mxgraph.bpmn.event;html=1;verticalLabelPosition=bottom;labelBackgroundColor=#ffffff;verticalAlign=top;align=center;perimeter=ellipsePerimeter;outlineConnect=0;aspect=fixed;outline=end;symbol=terminate2;" parent="FFVz2CKMZXDEGPBVcJut-6" vertex="1">
          <mxGeometry x="677" y="35" width="50" height="50" as="geometry" />
        </mxCell>
        <mxCell id="DsjO2WDaee5bb-nneKYn-2" style="edgeStyle=orthogonalEdgeStyle;rounded=0;orthogonalLoop=1;jettySize=auto;html=1;" edge="1" parent="FFVz2CKMZXDEGPBVcJut-6" source="DsjO2WDaee5bb-nneKYn-1" target="FFVz2CKMZXDEGPBVcJut-7">
          <mxGeometry relative="1" as="geometry" />
        </mxCell>
        <mxCell id="DsjO2WDaee5bb-nneKYn-1" value="" style="points=[[0.145,0.145,0],[0.5,0,0],[0.855,0.145,0],[1,0.5,0],[0.855,0.855,0],[0.5,1,0],[0.145,0.855,0],[0,0.5,0]];shape=mxgraph.bpmn.event;html=1;verticalLabelPosition=bottom;labelBackgroundColor=#ffffff;verticalAlign=top;align=center;perimeter=ellipsePerimeter;outlineConnect=0;aspect=fixed;outline=standard;symbol=general;" vertex="1" parent="FFVz2CKMZXDEGPBVcJut-6">
          <mxGeometry x="50" y="30" width="50" height="50" as="geometry" />
        </mxCell>
        <mxCell id="FFVz2CKMZXDEGPBVcJut-9" style="edgeStyle=orthogonalEdgeStyle;rounded=0;orthogonalLoop=1;jettySize=auto;html=1;" parent="FFVz2CKMZXDEGPBVcJut-1" source="FFVz2CKMZXDEGPBVcJut-7" target="FFVz2CKMZXDEGPBVcJut-10" edge="1">
          <mxGeometry relative="1" as="geometry">
            <mxPoint x="95" y="179.9999999999999" as="targetPoint" />
            <Array as="points">
              <mxPoint x="195" y="170" />
              <mxPoint x="90" y="170" />
              <mxPoint x="90" y="255" />
            </Array>
          </mxGeometry>
        </mxCell>
        <mxCell id="FFVz2CKMZXDEGPBVcJut-2" value="graphql_app" style="swimlane;html=1;startSize=20;horizontal=0;" parent="FFVz2CKMZXDEGPBVcJut-1" vertex="1">
          <mxGeometry y="140" width="2830" height="200" as="geometry" />
        </mxCell>
        <mxCell id="FFVz2CKMZXDEGPBVcJut-14" style="edgeStyle=orthogonalEdgeStyle;rounded=0;orthogonalLoop=1;jettySize=auto;html=1;" parent="FFVz2CKMZXDEGPBVcJut-2" source="FFVz2CKMZXDEGPBVcJut-10" target="FFVz2CKMZXDEGPBVcJut-13" edge="1">
          <mxGeometry relative="1" as="geometry">
            <Array as="points">
              <mxPoint x="145" y="155" />
            </Array>
          </mxGeometry>
        </mxCell>
        <mxCell id="FFVz2CKMZXDEGPBVcJut-78" value="No" style="edgeLabel;html=1;align=center;verticalAlign=middle;resizable=0;points=[];" parent="FFVz2CKMZXDEGPBVcJut-14" vertex="1" connectable="0">
          <mxGeometry x="0.2889" y="-1" relative="1" as="geometry">
            <mxPoint x="9" y="-1" as="offset" />
          </mxGeometry>
        </mxCell>
        <mxCell id="FFVz2CKMZXDEGPBVcJut-15" style="edgeStyle=orthogonalEdgeStyle;rounded=0;orthogonalLoop=1;jettySize=auto;html=1;" parent="FFVz2CKMZXDEGPBVcJut-2" source="FFVz2CKMZXDEGPBVcJut-10" target="FFVz2CKMZXDEGPBVcJut-11" edge="1">
          <mxGeometry relative="1" as="geometry">
            <Array as="points">
              <mxPoint x="145" y="65" />
            </Array>
          </mxGeometry>
        </mxCell>
        <mxCell id="FFVz2CKMZXDEGPBVcJut-77" value="Si" style="edgeLabel;html=1;align=center;verticalAlign=middle;resizable=0;points=[];" parent="FFVz2CKMZXDEGPBVcJut-15" vertex="1" connectable="0">
          <mxGeometry x="-0.013" y="3" relative="1" as="geometry">
            <mxPoint x="11" y="3" as="offset" />
          </mxGeometry>
        </mxCell>
        <mxCell id="FFVz2CKMZXDEGPBVcJut-10" value="&lt;font style=&quot;font-size: 8px;&quot;&gt;la franquicia ya fue creada &lt;br&gt;con la url de la peticion?&lt;/font&gt;" style="points=[[0.25,0.25,0],[0.5,0,0],[0.75,0.25,0],[1,0.5,0],[0.75,0.75,0],[0.5,1,0],[0.25,0.75,0],[0,0.5,0]];shape=mxgraph.bpmn.gateway2;html=1;verticalLabelPosition=bottom;labelBackgroundColor=#ffffff;verticalAlign=top;align=center;perimeter=rhombusPerimeter;outlineConnect=0;outline=none;symbol=none;gwType=exclusive;" parent="FFVz2CKMZXDEGPBVcJut-2" vertex="1">
          <mxGeometry x="120" y="90" width="50" height="50" as="geometry" />
        </mxCell>
        <mxCell id="FFVz2CKMZXDEGPBVcJut-16" style="edgeStyle=orthogonalEdgeStyle;rounded=0;orthogonalLoop=1;jettySize=auto;html=1;" parent="FFVz2CKMZXDEGPBVcJut-2" source="FFVz2CKMZXDEGPBVcJut-11" target="FFVz2CKMZXDEGPBVcJut-12" edge="1">
          <mxGeometry relative="1" as="geometry">
            <Array as="points">
              <mxPoint x="395" y="65" />
            </Array>
          </mxGeometry>
        </mxCell>
        <mxCell id="FFVz2CKMZXDEGPBVcJut-11" value="Consultar datos de franquicia pendiente en db" style="points=[[0.25,0,0],[0.5,0,0],[0.75,0,0],[1,0.25,0],[1,0.5,0],[1,0.75,0],[0.75,1,0],[0.5,1,0],[0.25,1,0],[0,0.75,0],[0,0.5,0],[0,0.25,0]];shape=mxgraph.bpmn.task;whiteSpace=wrap;rectStyle=rounded;size=10;html=1;container=1;expand=0;collapsible=0;taskMarker=abstract;fontSize=8;" parent="FFVz2CKMZXDEGPBVcJut-2" vertex="1">
          <mxGeometry x="240" y="40" width="90" height="50" as="geometry" />
        </mxCell>
        <mxCell id="FFVz2CKMZXDEGPBVcJut-20" style="edgeStyle=orthogonalEdgeStyle;rounded=0;orthogonalLoop=1;jettySize=auto;html=1;" parent="FFVz2CKMZXDEGPBVcJut-2" source="FFVz2CKMZXDEGPBVcJut-12" target="FFVz2CKMZXDEGPBVcJut-18" edge="1">
          <mxGeometry relative="1" as="geometry" />
        </mxCell>
        <mxCell id="FFVz2CKMZXDEGPBVcJut-12" value="" style="points=[[0.25,0.25,0],[0.5,0,0],[0.75,0.25,0],[1,0.5,0],[0.75,0.75,0],[0.5,1,0],[0.25,0.75,0],[0,0.5,0]];shape=mxgraph.bpmn.gateway2;html=1;verticalLabelPosition=bottom;labelBackgroundColor=#ffffff;verticalAlign=top;align=center;perimeter=rhombusPerimeter;outlineConnect=0;outline=none;symbol=none;gwType=exclusive;" parent="FFVz2CKMZXDEGPBVcJut-2" vertex="1">
          <mxGeometry x="370" y="90" width="50" height="50" as="geometry" />
        </mxCell>
        <mxCell id="FFVz2CKMZXDEGPBVcJut-17" style="edgeStyle=orthogonalEdgeStyle;rounded=0;orthogonalLoop=1;jettySize=auto;html=1;" parent="FFVz2CKMZXDEGPBVcJut-2" source="FFVz2CKMZXDEGPBVcJut-13" target="FFVz2CKMZXDEGPBVcJut-12" edge="1">
          <mxGeometry relative="1" as="geometry">
            <Array as="points">
              <mxPoint x="395" y="155" />
            </Array>
          </mxGeometry>
        </mxCell>
        <mxCell id="FFVz2CKMZXDEGPBVcJut-13" value="Crear franquicia pendiente en db" style="points=[[0.25,0,0],[0.5,0,0],[0.75,0,0],[1,0.25,0],[1,0.5,0],[1,0.75,0],[0.75,1,0],[0.5,1,0],[0.25,1,0],[0,0.75,0],[0,0.5,0],[0,0.25,0]];shape=mxgraph.bpmn.task;whiteSpace=wrap;rectStyle=rounded;size=10;html=1;container=1;expand=0;collapsible=0;taskMarker=abstract;fontSize=8;" parent="FFVz2CKMZXDEGPBVcJut-2" vertex="1">
          <mxGeometry x="240" y="130" width="90" height="50" as="geometry" />
        </mxCell>
        <mxCell id="FFVz2CKMZXDEGPBVcJut-18" value="Enviar solicitud de creacion a cola de eventos interna" style="points=[[0.25,0,0],[0.5,0,0],[0.75,0,0],[1,0.25,0],[1,0.5,0],[1,0.75,0],[0.75,1,0],[0.5,1,0],[0.25,1,0],[0,0.75,0],[0,0.5,0],[0,0.25,0]];shape=mxgraph.bpmn.task;whiteSpace=wrap;rectStyle=rounded;size=10;html=1;container=1;expand=0;collapsible=0;taskMarker=abstract;fontSize=8;" parent="FFVz2CKMZXDEGPBVcJut-2" vertex="1">
          <mxGeometry x="500" y="90" width="90" height="50" as="geometry" />
        </mxCell>
        <mxCell id="FFVz2CKMZXDEGPBVcJut-22" value="Enviar respuesta a la solicitud con los datos de la franquicia" style="points=[[0.25,0,0],[0.5,0,0],[0.75,0,0],[1,0.25,0],[1,0.5,0],[1,0.75,0],[0.75,1,0],[0.5,1,0],[0.25,1,0],[0,0.75,0],[0,0.5,0],[0,0.25,0]];shape=mxgraph.bpmn.task;whiteSpace=wrap;rectStyle=rounded;size=10;html=1;container=1;expand=0;collapsible=0;taskMarker=abstract;fontSize=8;" parent="FFVz2CKMZXDEGPBVcJut-2" vertex="1">
          <mxGeometry x="500" y="20" width="90" height="50" as="geometry" />
        </mxCell>
        <mxCell id="FFVz2CKMZXDEGPBVcJut-23" style="edgeStyle=orthogonalEdgeStyle;rounded=0;orthogonalLoop=1;jettySize=auto;html=1;" parent="FFVz2CKMZXDEGPBVcJut-2" source="FFVz2CKMZXDEGPBVcJut-18" target="FFVz2CKMZXDEGPBVcJut-22" edge="1">
          <mxGeometry relative="1" as="geometry" />
        </mxCell>
        <mxCell id="FFVz2CKMZXDEGPBVcJut-30" style="edgeStyle=orthogonalEdgeStyle;rounded=0;orthogonalLoop=1;jettySize=auto;html=1;" parent="FFVz2CKMZXDEGPBVcJut-2" source="FFVz2CKMZXDEGPBVcJut-27" target="FFVz2CKMZXDEGPBVcJut-29" edge="1">
          <mxGeometry relative="1" as="geometry" />
        </mxCell>
        <mxCell id="FFVz2CKMZXDEGPBVcJut-27" value="" style="points=[[0.145,0.145,0],[0.5,0,0],[0.855,0.145,0],[1,0.5,0],[0.855,0.855,0],[0.5,1,0],[0.145,0.855,0],[0,0.5,0]];shape=mxgraph.bpmn.event;html=1;verticalLabelPosition=bottom;labelBackgroundColor=#ffffff;verticalAlign=top;align=center;perimeter=ellipsePerimeter;outlineConnect=0;aspect=fixed;outline=throwing;symbol=message;" parent="FFVz2CKMZXDEGPBVcJut-2" vertex="1">
          <mxGeometry x="660" y="90" width="50" height="50" as="geometry" />
        </mxCell>
        <mxCell id="FFVz2CKMZXDEGPBVcJut-28" style="edgeStyle=orthogonalEdgeStyle;rounded=0;orthogonalLoop=1;jettySize=auto;html=1;entryX=0;entryY=0.5;entryDx=0;entryDy=0;entryPerimeter=0;" parent="FFVz2CKMZXDEGPBVcJut-2" source="FFVz2CKMZXDEGPBVcJut-18" target="FFVz2CKMZXDEGPBVcJut-27" edge="1">
          <mxGeometry relative="1" as="geometry" />
        </mxCell>
        <mxCell id="FFVz2CKMZXDEGPBVcJut-61" style="edgeStyle=orthogonalEdgeStyle;rounded=0;orthogonalLoop=1;jettySize=auto;html=1;" parent="FFVz2CKMZXDEGPBVcJut-2" source="FFVz2CKMZXDEGPBVcJut-29" target="FFVz2CKMZXDEGPBVcJut-59" edge="1">
          <mxGeometry relative="1" as="geometry" />
        </mxCell>
        <mxCell id="FFVz2CKMZXDEGPBVcJut-29" value="" style="points=[[0.145,0.145,0],[0.5,0,0],[0.855,0.145,0],[1,0.5,0],[0.855,0.855,0],[0.5,1,0],[0.145,0.855,0],[0,0.5,0]];shape=mxgraph.bpmn.event;html=1;verticalLabelPosition=bottom;labelBackgroundColor=#ffffff;verticalAlign=top;align=center;perimeter=ellipsePerimeter;outlineConnect=0;aspect=fixed;outline=catching;symbol=message;" parent="FFVz2CKMZXDEGPBVcJut-2" vertex="1">
          <mxGeometry x="800" y="90" width="50" height="50" as="geometry" />
        </mxCell>
        <mxCell id="FFVz2CKMZXDEGPBVcJut-59" value="acutalizar franquicia pendiente con estado PROCESSING" style="points=[[0.25,0,0],[0.5,0,0],[0.75,0,0],[1,0.25,0],[1,0.5,0],[1,0.75,0],[0.75,1,0],[0.5,1,0],[0.25,1,0],[0,0.75,0],[0,0.5,0],[0,0.25,0]];shape=mxgraph.bpmn.task;whiteSpace=wrap;rectStyle=rounded;size=10;html=1;container=1;expand=0;collapsible=0;taskMarker=abstract;fontSize=8;" parent="FFVz2CKMZXDEGPBVcJut-2" vertex="1">
          <mxGeometry x="890" y="90" width="90" height="50" as="geometry" />
        </mxCell>
        <mxCell id="FFVz2CKMZXDEGPBVcJut-69" style="edgeStyle=orthogonalEdgeStyle;rounded=0;orthogonalLoop=1;jettySize=auto;html=1;" parent="FFVz2CKMZXDEGPBVcJut-2" source="FFVz2CKMZXDEGPBVcJut-66" target="FFVz2CKMZXDEGPBVcJut-68" edge="1">
          <mxGeometry relative="1" as="geometry" />
        </mxCell>
        <mxCell id="FFVz2CKMZXDEGPBVcJut-66" value="procesar respuesta de grcp" style="points=[[0.25,0,0],[0.5,0,0],[0.75,0,0],[1,0.25,0],[1,0.5,0],[1,0.75,0],[0.75,1,0],[0.5,1,0],[0.25,1,0],[0,0.75,0],[0,0.5,0],[0,0.25,0]];shape=mxgraph.bpmn.task;whiteSpace=wrap;rectStyle=rounded;size=10;html=1;container=1;expand=0;collapsible=0;taskMarker=abstract;fontSize=8;" parent="FFVz2CKMZXDEGPBVcJut-2" vertex="1">
          <mxGeometry x="2140" y="75" width="90" height="50" as="geometry" />
        </mxCell>
        <mxCell id="FFVz2CKMZXDEGPBVcJut-72" style="edgeStyle=orthogonalEdgeStyle;rounded=0;orthogonalLoop=1;jettySize=auto;html=1;" parent="FFVz2CKMZXDEGPBVcJut-2" source="FFVz2CKMZXDEGPBVcJut-68" target="FFVz2CKMZXDEGPBVcJut-71" edge="1">
          <mxGeometry relative="1" as="geometry">
            <mxPoint x="2375" y="100" as="sourcePoint" />
            <mxPoint x="2425" y="165" as="targetPoint" />
            <Array as="points">
              <mxPoint x="2395" y="100" />
              <mxPoint x="2395" y="165" />
            </Array>
          </mxGeometry>
        </mxCell>
        <mxCell id="FFVz2CKMZXDEGPBVcJut-75" value="no" style="edgeLabel;html=1;align=center;verticalAlign=middle;resizable=0;points=[];" parent="FFVz2CKMZXDEGPBVcJut-72" vertex="1" connectable="0">
          <mxGeometry x="-0.131" y="-1" relative="1" as="geometry">
            <mxPoint y="1" as="offset" />
          </mxGeometry>
        </mxCell>
        <mxCell id="FFVz2CKMZXDEGPBVcJut-68" value="hay un error?" style="points=[[0.25,0.25,0],[0.5,0,0],[0.75,0.25,0],[1,0.5,0],[0.75,0.75,0],[0.5,1,0],[0.25,0.75,0],[0,0.5,0]];shape=mxgraph.bpmn.gateway2;html=1;verticalLabelPosition=bottom;labelBackgroundColor=#ffffff;verticalAlign=top;align=center;perimeter=rhombusPerimeter;outlineConnect=0;outline=none;symbol=none;gwType=exclusive;" parent="FFVz2CKMZXDEGPBVcJut-2" vertex="1">
          <mxGeometry x="2320" y="75" width="50" height="50" as="geometry" />
        </mxCell>
        <mxCell id="FFVz2CKMZXDEGPBVcJut-81" style="edgeStyle=orthogonalEdgeStyle;rounded=0;orthogonalLoop=1;jettySize=auto;html=1;" parent="FFVz2CKMZXDEGPBVcJut-2" source="FFVz2CKMZXDEGPBVcJut-70" target="FFVz2CKMZXDEGPBVcJut-80" edge="1">
          <mxGeometry relative="1" as="geometry" />
        </mxCell>
        <mxCell id="FFVz2CKMZXDEGPBVcJut-70" value="registrar error en la tfranquicia pendiente con estado ERROR y la descripcion" style="points=[[0.25,0,0],[0.5,0,0],[0.75,0,0],[1,0.25,0],[1,0.5,0],[1,0.75,0],[0.75,1,0],[0.5,1,0],[0.25,1,0],[0,0.75,0],[0,0.5,0],[0,0.25,0]];shape=mxgraph.bpmn.task;whiteSpace=wrap;rectStyle=rounded;size=10;html=1;container=1;expand=0;collapsible=0;taskMarker=abstract;fontSize=8;" parent="FFVz2CKMZXDEGPBVcJut-2" vertex="1">
          <mxGeometry x="2420" y="20" width="90" height="50" as="geometry" />
        </mxCell>
        <mxCell id="FFVz2CKMZXDEGPBVcJut-85" style="edgeStyle=orthogonalEdgeStyle;rounded=0;orthogonalLoop=1;jettySize=auto;html=1;" parent="FFVz2CKMZXDEGPBVcJut-2" source="FFVz2CKMZXDEGPBVcJut-71" target="FFVz2CKMZXDEGPBVcJut-80" edge="1">
          <mxGeometry relative="1" as="geometry" />
        </mxCell>
        <mxCell id="FFVz2CKMZXDEGPBVcJut-71" value="Actualizar en db el estado de la franquicia pendiente a CREATED" style="points=[[0.25,0,0],[0.5,0,0],[0.75,0,0],[1,0.25,0],[1,0.5,0],[1,0.75,0],[0.75,1,0],[0.5,1,0],[0.25,1,0],[0,0.75,0],[0,0.5,0],[0,0.25,0]];shape=mxgraph.bpmn.task;whiteSpace=wrap;rectStyle=rounded;size=10;html=1;container=1;expand=0;collapsible=0;taskMarker=abstract;fontSize=8;" parent="FFVz2CKMZXDEGPBVcJut-2" vertex="1">
          <mxGeometry x="2420" y="140" width="90" height="50" as="geometry" />
        </mxCell>
        <mxCell id="FFVz2CKMZXDEGPBVcJut-73" style="edgeStyle=orthogonalEdgeStyle;rounded=0;orthogonalLoop=1;jettySize=auto;html=1;entryX=0;entryY=0.5;entryDx=0;entryDy=0;entryPerimeter=0;" parent="FFVz2CKMZXDEGPBVcJut-2" source="FFVz2CKMZXDEGPBVcJut-68" target="FFVz2CKMZXDEGPBVcJut-70" edge="1">
          <mxGeometry relative="1" as="geometry" />
        </mxCell>
        <mxCell id="FFVz2CKMZXDEGPBVcJut-74" value="si" style="edgeLabel;html=1;align=center;verticalAlign=middle;resizable=0;points=[];" parent="FFVz2CKMZXDEGPBVcJut-73" vertex="1" connectable="0">
          <mxGeometry x="-0.0899" y="1" relative="1" as="geometry">
            <mxPoint y="1" as="offset" />
          </mxGeometry>
        </mxCell>
        <mxCell id="FFVz2CKMZXDEGPBVcJut-87" style="edgeStyle=orthogonalEdgeStyle;rounded=0;orthogonalLoop=1;jettySize=auto;html=1;" parent="FFVz2CKMZXDEGPBVcJut-2" source="FFVz2CKMZXDEGPBVcJut-80" target="FFVz2CKMZXDEGPBVcJut-86" edge="1">
          <mxGeometry relative="1" as="geometry" />
        </mxCell>
        <mxCell id="FFVz2CKMZXDEGPBVcJut-80" value="" style="points=[[0.25,0.25,0],[0.5,0,0],[0.75,0.25,0],[1,0.5,0],[0.75,0.75,0],[0.5,1,0],[0.25,0.75,0],[0,0.5,0]];shape=mxgraph.bpmn.gateway2;html=1;verticalLabelPosition=bottom;labelBackgroundColor=#ffffff;verticalAlign=top;align=center;perimeter=rhombusPerimeter;outlineConnect=0;outline=none;symbol=none;gwType=exclusive;" parent="FFVz2CKMZXDEGPBVcJut-2" vertex="1">
          <mxGeometry x="2540" y="75" width="50" height="50" as="geometry" />
        </mxCell>
        <mxCell id="FFVz2CKMZXDEGPBVcJut-86" value="" style="points=[[0.145,0.145,0],[0.5,0,0],[0.855,0.145,0],[1,0.5,0],[0.855,0.855,0],[0.5,1,0],[0.145,0.855,0],[0,0.5,0]];shape=mxgraph.bpmn.event;html=1;verticalLabelPosition=bottom;labelBackgroundColor=#ffffff;verticalAlign=top;align=center;perimeter=ellipsePerimeter;outlineConnect=0;aspect=fixed;outline=end;symbol=terminate2;" parent="FFVz2CKMZXDEGPBVcJut-2" vertex="1">
          <mxGeometry x="2670" y="75" width="50" height="50" as="geometry" />
        </mxCell>
        <mxCell id="FFVz2CKMZXDEGPBVcJut-3" value="grcp_app" style="swimlane;html=1;startSize=20;horizontal=0;" parent="FFVz2CKMZXDEGPBVcJut-1" vertex="1">
          <mxGeometry y="340" width="2830" height="250" as="geometry" />
        </mxCell>
        <mxCell id="FFVz2CKMZXDEGPBVcJut-31" value="Crear&amp;nbsp; franquicia" style="points=[[0.25,0,0],[0.5,0,0],[0.75,0,0],[1,0.25,0],[1,0.5,0],[1,0.75,0],[0.75,1,0],[0.5,1,0],[0.25,1,0],[0,0.75,0],[0,0.5,0],[0,0.25,0]];shape=mxgraph.bpmn.task;whiteSpace=wrap;rectStyle=rounded;size=10;html=1;container=1;expand=0;collapsible=0;taskMarker=abstract;fontSize=8;" parent="FFVz2CKMZXDEGPBVcJut-3" vertex="1">
          <mxGeometry x="1080" y="-110" width="90" height="50" as="geometry" />
        </mxCell>
        <mxCell id="FFVz2CKMZXDEGPBVcJut-34" style="edgeStyle=orthogonalEdgeStyle;rounded=0;orthogonalLoop=1;jettySize=auto;html=1;" parent="FFVz2CKMZXDEGPBVcJut-3" source="FFVz2CKMZXDEGPBVcJut-31" target="FFVz2CKMZXDEGPBVcJut-37" edge="1">
          <mxGeometry relative="1" as="geometry">
            <mxPoint x="1125" y="40" as="targetPoint" />
          </mxGeometry>
        </mxCell>
        <mxCell id="FFVz2CKMZXDEGPBVcJut-36" value="" style="edgeStyle=orthogonalEdgeStyle;rounded=0;orthogonalLoop=1;jettySize=auto;html=1;" parent="FFVz2CKMZXDEGPBVcJut-3" source="FFVz2CKMZXDEGPBVcJut-37" target="FFVz2CKMZXDEGPBVcJut-35" edge="1">
          <mxGeometry relative="1" as="geometry">
            <mxPoint x="1170" y="65" as="sourcePoint" />
            <Array as="points">
              <mxPoint x="1190" y="125" />
              <mxPoint x="1190" y="60" />
            </Array>
          </mxGeometry>
        </mxCell>
        <mxCell id="FFVz2CKMZXDEGPBVcJut-43" style="edgeStyle=orthogonalEdgeStyle;rounded=0;orthogonalLoop=1;jettySize=auto;html=1;" parent="FFVz2CKMZXDEGPBVcJut-3" source="FFVz2CKMZXDEGPBVcJut-35" target="FFVz2CKMZXDEGPBVcJut-42" edge="1">
          <mxGeometry relative="1" as="geometry" />
        </mxCell>
        <mxCell id="FFVz2CKMZXDEGPBVcJut-35" value="buscar datos en web de la franquicia" style="points=[[0.25,0,0],[0.5,0,0],[0.75,0,0],[1,0.25,0],[1,0.5,0],[1,0.75,0],[0.75,1,0],[0.5,1,0],[0.25,1,0],[0,0.75,0],[0,0.5,0],[0,0.25,0]];shape=mxgraph.bpmn.task;whiteSpace=wrap;rectStyle=rounded;size=10;html=1;container=1;expand=0;collapsible=0;taskMarker=abstract;fontSize=8;" parent="FFVz2CKMZXDEGPBVcJut-3" vertex="1">
          <mxGeometry x="1250" y="40" width="90" height="50" as="geometry" />
        </mxCell>
        <mxCell id="FFVz2CKMZXDEGPBVcJut-41" style="edgeStyle=orthogonalEdgeStyle;rounded=0;orthogonalLoop=1;jettySize=auto;html=1;" parent="FFVz2CKMZXDEGPBVcJut-3" source="FFVz2CKMZXDEGPBVcJut-37" target="FFVz2CKMZXDEGPBVcJut-40" edge="1">
          <mxGeometry relative="1" as="geometry">
            <Array as="points">
              <mxPoint x="1190" y="125" />
              <mxPoint x="1190" y="185" />
            </Array>
          </mxGeometry>
        </mxCell>
        <mxCell id="FFVz2CKMZXDEGPBVcJut-37" value="" style="points=[[0.25,0.25,0],[0.5,0,0],[0.75,0.25,0],[1,0.5,0],[0.75,0.75,0],[0.5,1,0],[0.25,0.75,0],[0,0.5,0]];shape=mxgraph.bpmn.gateway2;html=1;verticalLabelPosition=bottom;labelBackgroundColor=#ffffff;verticalAlign=top;align=center;perimeter=rhombusPerimeter;outlineConnect=0;outline=end;symbol=general;" parent="FFVz2CKMZXDEGPBVcJut-3" vertex="1">
          <mxGeometry x="1100" y="100" width="50" height="50" as="geometry" />
        </mxCell>
        <mxCell id="FFVz2CKMZXDEGPBVcJut-39" style="edgeStyle=orthogonalEdgeStyle;rounded=0;orthogonalLoop=1;jettySize=auto;html=1;" parent="FFVz2CKMZXDEGPBVcJut-3" source="FFVz2CKMZXDEGPBVcJut-37" target="FFVz2CKMZXDEGPBVcJut-38" edge="1">
          <mxGeometry relative="1" as="geometry" />
        </mxCell>
        <mxCell id="FFVz2CKMZXDEGPBVcJut-44" style="edgeStyle=orthogonalEdgeStyle;rounded=0;orthogonalLoop=1;jettySize=auto;html=1;" parent="FFVz2CKMZXDEGPBVcJut-3" source="FFVz2CKMZXDEGPBVcJut-38" target="FFVz2CKMZXDEGPBVcJut-42" edge="1">
          <mxGeometry relative="1" as="geometry" />
        </mxCell>
        <mxCell id="FFVz2CKMZXDEGPBVcJut-38" value="buscar datos con who is" style="points=[[0.25,0,0],[0.5,0,0],[0.75,0,0],[1,0.25,0],[1,0.5,0],[1,0.75,0],[0.75,1,0],[0.5,1,0],[0.25,1,0],[0,0.75,0],[0,0.5,0],[0,0.25,0]];shape=mxgraph.bpmn.task;whiteSpace=wrap;rectStyle=rounded;size=10;html=1;container=1;expand=0;collapsible=0;taskMarker=abstract;fontSize=8;" parent="FFVz2CKMZXDEGPBVcJut-3" vertex="1">
          <mxGeometry x="1250" y="100" width="90" height="50" as="geometry" />
        </mxCell>
        <mxCell id="FFVz2CKMZXDEGPBVcJut-45" style="edgeStyle=orthogonalEdgeStyle;rounded=0;orthogonalLoop=1;jettySize=auto;html=1;" parent="FFVz2CKMZXDEGPBVcJut-3" source="FFVz2CKMZXDEGPBVcJut-40" target="FFVz2CKMZXDEGPBVcJut-42" edge="1">
          <mxGeometry relative="1" as="geometry" />
        </mxCell>
        <mxCell id="FFVz2CKMZXDEGPBVcJut-40" value="buscar datos de protocolo" style="points=[[0.25,0,0],[0.5,0,0],[0.75,0,0],[1,0.25,0],[1,0.5,0],[1,0.75,0],[0.75,1,0],[0.5,1,0],[0.25,1,0],[0,0.75,0],[0,0.5,0],[0,0.25,0]];shape=mxgraph.bpmn.task;whiteSpace=wrap;rectStyle=rounded;size=10;html=1;container=1;expand=0;collapsible=0;taskMarker=abstract;fontSize=8;" parent="FFVz2CKMZXDEGPBVcJut-3" vertex="1">
          <mxGeometry x="1250" y="160" width="90" height="50" as="geometry" />
        </mxCell>
        <mxCell id="FFVz2CKMZXDEGPBVcJut-47" style="edgeStyle=orthogonalEdgeStyle;rounded=0;orthogonalLoop=1;jettySize=auto;html=1;" parent="FFVz2CKMZXDEGPBVcJut-3" source="FFVz2CKMZXDEGPBVcJut-42" target="FFVz2CKMZXDEGPBVcJut-46" edge="1">
          <mxGeometry relative="1" as="geometry" />
        </mxCell>
        <mxCell id="FFVz2CKMZXDEGPBVcJut-42" value="" style="points=[[0.25,0.25,0],[0.5,0,0],[0.75,0.25,0],[1,0.5,0],[0.75,0.75,0],[0.5,1,0],[0.25,0.75,0],[0,0.5,0]];shape=mxgraph.bpmn.gateway2;html=1;verticalLabelPosition=bottom;labelBackgroundColor=#ffffff;verticalAlign=top;align=center;perimeter=rhombusPerimeter;outlineConnect=0;outline=end;symbol=general;" parent="FFVz2CKMZXDEGPBVcJut-3" vertex="1">
          <mxGeometry x="1390" y="100" width="50" height="50" as="geometry" />
        </mxCell>
        <mxCell id="FFVz2CKMZXDEGPBVcJut-50" style="edgeStyle=orthogonalEdgeStyle;rounded=0;orthogonalLoop=1;jettySize=auto;html=1;" parent="FFVz2CKMZXDEGPBVcJut-3" source="FFVz2CKMZXDEGPBVcJut-46" target="FFVz2CKMZXDEGPBVcJut-48" edge="1">
          <mxGeometry relative="1" as="geometry" />
        </mxCell>
        <mxCell id="FFVz2CKMZXDEGPBVcJut-46" value="buscar datos de pais en db o crearla" style="points=[[0.25,0,0],[0.5,0,0],[0.75,0,0],[1,0.25,0],[1,0.5,0],[1,0.75,0],[0.75,1,0],[0.5,1,0],[0.25,1,0],[0,0.75,0],[0,0.5,0],[0,0.25,0]];shape=mxgraph.bpmn.task;whiteSpace=wrap;rectStyle=rounded;size=10;html=1;container=1;expand=0;collapsible=0;taskMarker=abstract;fontSize=8;" parent="FFVz2CKMZXDEGPBVcJut-3" vertex="1">
          <mxGeometry x="1490" y="100" width="90" height="50" as="geometry" />
        </mxCell>
        <mxCell id="FFVz2CKMZXDEGPBVcJut-51" style="edgeStyle=orthogonalEdgeStyle;rounded=0;orthogonalLoop=1;jettySize=auto;html=1;" parent="FFVz2CKMZXDEGPBVcJut-3" source="FFVz2CKMZXDEGPBVcJut-48" target="FFVz2CKMZXDEGPBVcJut-49" edge="1">
          <mxGeometry relative="1" as="geometry" />
        </mxCell>
        <mxCell id="FFVz2CKMZXDEGPBVcJut-48" value="buscar datos de ciudad en db o crearla" style="points=[[0.25,0,0],[0.5,0,0],[0.75,0,0],[1,0.25,0],[1,0.5,0],[1,0.75,0],[0.75,1,0],[0.5,1,0],[0.25,1,0],[0,0.75,0],[0,0.5,0],[0,0.25,0]];shape=mxgraph.bpmn.task;whiteSpace=wrap;rectStyle=rounded;size=10;html=1;container=1;expand=0;collapsible=0;taskMarker=abstract;fontSize=8;" parent="FFVz2CKMZXDEGPBVcJut-3" vertex="1">
          <mxGeometry x="1610" y="100" width="90" height="50" as="geometry" />
        </mxCell>
        <mxCell id="FFVz2CKMZXDEGPBVcJut-53" style="edgeStyle=orthogonalEdgeStyle;rounded=0;orthogonalLoop=1;jettySize=auto;html=1;" parent="FFVz2CKMZXDEGPBVcJut-3" source="FFVz2CKMZXDEGPBVcJut-49" target="FFVz2CKMZXDEGPBVcJut-52" edge="1">
          <mxGeometry relative="1" as="geometry" />
        </mxCell>
        <mxCell id="FFVz2CKMZXDEGPBVcJut-49" value="buscar datos de locacion o crearlos" style="points=[[0.25,0,0],[0.5,0,0],[0.75,0,0],[1,0.25,0],[1,0.5,0],[1,0.75,0],[0.75,1,0],[0.5,1,0],[0.25,1,0],[0,0.75,0],[0,0.5,0],[0,0.25,0]];shape=mxgraph.bpmn.task;whiteSpace=wrap;rectStyle=rounded;size=10;html=1;container=1;expand=0;collapsible=0;taskMarker=abstract;fontSize=8;" parent="FFVz2CKMZXDEGPBVcJut-3" vertex="1">
          <mxGeometry x="1730" y="100" width="90" height="50" as="geometry" />
        </mxCell>
        <mxCell id="FFVz2CKMZXDEGPBVcJut-55" style="edgeStyle=orthogonalEdgeStyle;rounded=0;orthogonalLoop=1;jettySize=auto;html=1;" parent="FFVz2CKMZXDEGPBVcJut-3" source="FFVz2CKMZXDEGPBVcJut-52" target="FFVz2CKMZXDEGPBVcJut-54" edge="1">
          <mxGeometry relative="1" as="geometry" />
        </mxCell>
        <mxCell id="FFVz2CKMZXDEGPBVcJut-52" value="buscar datos de compañia o crearlos" style="points=[[0.25,0,0],[0.5,0,0],[0.75,0,0],[1,0.25,0],[1,0.5,0],[1,0.75,0],[0.75,1,0],[0.5,1,0],[0.25,1,0],[0,0.75,0],[0,0.5,0],[0,0.25,0]];shape=mxgraph.bpmn.task;whiteSpace=wrap;rectStyle=rounded;size=10;html=1;container=1;expand=0;collapsible=0;taskMarker=abstract;fontSize=8;" parent="FFVz2CKMZXDEGPBVcJut-3" vertex="1">
          <mxGeometry x="1860" y="100" width="90" height="50" as="geometry" />
        </mxCell>
        <mxCell id="FFVz2CKMZXDEGPBVcJut-65" value="" style="edgeStyle=orthogonalEdgeStyle;rounded=0;orthogonalLoop=1;jettySize=auto;html=1;" parent="FFVz2CKMZXDEGPBVcJut-3" source="FFVz2CKMZXDEGPBVcJut-54" target="FFVz2CKMZXDEGPBVcJut-64" edge="1">
          <mxGeometry relative="1" as="geometry" />
        </mxCell>
        <mxCell id="FFVz2CKMZXDEGPBVcJut-54" value="buscar datos de franquicia o crearlos" style="points=[[0.25,0,0],[0.5,0,0],[0.75,0,0],[1,0.25,0],[1,0.5,0],[1,0.75,0],[0.75,1,0],[0.5,1,0],[0.25,1,0],[0,0.75,0],[0,0.5,0],[0,0.25,0]];shape=mxgraph.bpmn.task;whiteSpace=wrap;rectStyle=rounded;size=10;html=1;container=1;expand=0;collapsible=0;taskMarker=abstract;fontSize=8;" parent="FFVz2CKMZXDEGPBVcJut-3" vertex="1">
          <mxGeometry x="1998" y="100" width="90" height="50" as="geometry" />
        </mxCell>
        <mxCell id="FFVz2CKMZXDEGPBVcJut-64" value="responder con mensaje de success o error" style="points=[[0.25,0,0],[0.5,0,0],[0.75,0,0],[1,0.25,0],[1,0.5,0],[1,0.75,0],[0.75,1,0],[0.5,1,0],[0.25,1,0],[0,0.75,0],[0,0.5,0],[0,0.25,0]];shape=mxgraph.bpmn.task;whiteSpace=wrap;rectStyle=rounded;size=10;html=1;container=1;expand=0;collapsible=0;taskMarker=abstract;fontSize=8;" parent="FFVz2CKMZXDEGPBVcJut-3" vertex="1">
          <mxGeometry x="2140" y="100" width="90" height="50" as="geometry" />
        </mxCell>
        <mxCell id="FFVz2CKMZXDEGPBVcJut-57" style="edgeStyle=orthogonalEdgeStyle;rounded=0;orthogonalLoop=1;jettySize=auto;html=1;" parent="FFVz2CKMZXDEGPBVcJut-1" source="FFVz2CKMZXDEGPBVcJut-22" target="FFVz2CKMZXDEGPBVcJut-26" edge="1">
          <mxGeometry relative="1" as="geometry" />
        </mxCell>
        <mxCell id="FFVz2CKMZXDEGPBVcJut-32" style="edgeStyle=orthogonalEdgeStyle;rounded=0;orthogonalLoop=1;jettySize=auto;html=1;" parent="FFVz2CKMZXDEGPBVcJut-1" source="FFVz2CKMZXDEGPBVcJut-59" target="FFVz2CKMZXDEGPBVcJut-31" edge="1">
          <mxGeometry relative="1" as="geometry">
            <mxPoint x="1020" y="255" as="sourcePoint" />
          </mxGeometry>
        </mxCell>
        <mxCell id="FFVz2CKMZXDEGPBVcJut-67" value="" style="edgeStyle=orthogonalEdgeStyle;rounded=0;orthogonalLoop=1;jettySize=auto;html=1;" parent="FFVz2CKMZXDEGPBVcJut-1" source="FFVz2CKMZXDEGPBVcJut-64" target="FFVz2CKMZXDEGPBVcJut-66" edge="1">
          <mxGeometry relative="1" as="geometry" />
        </mxCell>
      </root>
    </mxGraphModel>
  </diagram>
</mxfile>
